<mxfile host="app.diagrams.net" modified="2024-03-26T08:43:37.694Z" agent="Mozilla/5.0 (Windows NT 10.0; Win64; x64) AppleWebKit/537.36 (KHTML, like Gecko) Chrome/122.0.0.0 Safari/537.36 Edg/122.0.0.0" etag="91A6RfKS7HgLP9kY53ZG" version="24.1.0" type="device">
  <diagram id="XkLgqCAv8x0d3-E4Erp8" name="threadpool.h">
    <mxGraphModel dx="2995" dy="1818" grid="0" gridSize="10" guides="1" tooltips="1" connect="1" arrows="1" fold="1" page="1" pageScale="1" pageWidth="3300" pageHeight="2339" background="#FFFFFF" math="0" shadow="0">
      <root>
        <mxCell id="0" />
        <mxCell id="1" parent="0" />
        <mxCell id="VYtjbIEFMLEIHyW4JVhx-5" value="" style="group" parent="1" vertex="1" connectable="0">
          <mxGeometry x="831" y="124" width="713" height="516" as="geometry" />
        </mxCell>
        <mxCell id="XqGdemayxkRtgshSwvwm-5" value="&lt;font style=&quot;font-size: 18px;&quot;&gt;// 线程池类定义&lt;/font&gt;" style="text;html=1;align=center;verticalAlign=middle;resizable=0;points=[];autosize=1;strokeColor=none;fillColor=none;" parent="VYtjbIEFMLEIHyW4JVhx-5" vertex="1">
          <mxGeometry width="141" height="34" as="geometry" />
        </mxCell>
        <mxCell id="XqGdemayxkRtgshSwvwm-9" value="&lt;font style=&quot;font-size: 18px;&quot;&gt;&lt;i&gt;threadpool&lt;/i&gt;&lt;/font&gt;" style="swimlane;fontStyle=1;align=center;verticalAlign=top;childLayout=stackLayout;horizontal=1;startSize=26;horizontalStack=0;resizeParent=1;resizeParentMax=0;resizeLast=0;collapsible=1;marginBottom=0;whiteSpace=wrap;html=1;" parent="VYtjbIEFMLEIHyW4JVhx-5" vertex="1">
          <mxGeometry x="10" y="40" width="703" height="476" as="geometry" />
        </mxCell>
        <mxCell id="XqGdemayxkRtgshSwvwm-10" value="&lt;div&gt;&lt;font style=&quot;font-size: 18px;&quot;&gt;&lt;font style=&quot;&quot;&gt;-&amp;nbsp;&lt;/font&gt;&lt;span style=&quot;background-color: initial;&quot;&gt;m_thread_number:&amp;nbsp;&lt;/span&gt;&lt;span style=&quot;background-color: initial;&quot;&gt;int&amp;nbsp; &amp;nbsp;//线程池中的线程数&lt;/span&gt;&lt;/font&gt;&lt;/div&gt;&lt;div&gt;&lt;font size=&quot;3&quot;&gt;-&amp;nbsp;&lt;span style=&quot;background-color: initial;&quot;&gt;m_max_requests:&amp;nbsp;&lt;/span&gt;&lt;span style=&quot;background-color: initial;&quot;&gt;int&amp;nbsp; &amp;nbsp;//请求队列中允许的最大请求数&lt;/span&gt;&lt;/font&gt;&lt;/div&gt;&lt;div&gt;&lt;font size=&quot;3&quot;&gt;-&amp;nbsp;&lt;/font&gt;&lt;span style=&quot;font-size: medium; background-color: initial;&quot;&gt;m_threads:&amp;nbsp;&lt;/span&gt;&lt;span style=&quot;font-size: medium; background-color: initial;&quot;&gt;pthread_t *&amp;nbsp; &amp;nbsp;//描述线程池的数组，其大小为m_thread_number&lt;/span&gt;&lt;/div&gt;&lt;div&gt;&lt;font size=&quot;3&quot;&gt;-&amp;nbsp;&lt;/font&gt;&lt;span style=&quot;font-size: medium; background-color: initial;&quot;&gt;m_workqueue:&amp;nbsp;&lt;/span&gt;&lt;span style=&quot;font-size: medium; background-color: initial;&quot;&gt;std::list&amp;lt;T *&amp;gt;&amp;nbsp; &amp;nbsp;//请求队列&lt;/span&gt;&lt;/div&gt;&lt;div&gt;&lt;font size=&quot;3&quot;&gt;-&amp;nbsp;&lt;/font&gt;&lt;span style=&quot;font-size: medium; background-color: initial;&quot;&gt;m_queuelocker:&lt;/span&gt;&lt;span style=&quot;font-size: medium; background-color: initial;&quot;&gt;&amp;nbsp;locker&amp;nbsp; &amp;nbsp;//保护请求队列的互斥锁&lt;/span&gt;&lt;/div&gt;&lt;div&gt;&lt;font size=&quot;3&quot;&gt;-&amp;nbsp;&lt;/font&gt;&lt;span style=&quot;font-size: medium; background-color: initial;&quot;&gt;m_queuestat:&lt;/span&gt;&lt;span style=&quot;font-size: medium; background-color: initial;&quot;&gt;&amp;nbsp;sem&amp;nbsp; &amp;nbsp;//是否有任务需要处理&lt;/span&gt;&lt;/div&gt;&lt;div&gt;&lt;font size=&quot;3&quot;&gt;-&amp;nbsp;&lt;/font&gt;&lt;span style=&quot;font-size: medium; background-color: initial;&quot;&gt;m_connPool:&lt;/span&gt;&lt;span style=&quot;font-size: medium; background-color: initial;&quot;&gt;&amp;nbsp;connection_pool *&amp;nbsp; &amp;nbsp;//数据库&lt;/span&gt;&lt;/div&gt;&lt;div&gt;&lt;font size=&quot;3&quot;&gt;-&amp;nbsp;&lt;/font&gt;&lt;span style=&quot;font-size: medium; background-color: initial;&quot;&gt;m_actor_model:&amp;nbsp;&lt;/span&gt;&lt;span style=&quot;font-size: medium; background-color: initial;&quot;&gt;int&amp;nbsp; &amp;nbsp;//模型切换&lt;/span&gt;&lt;/div&gt;" style="text;strokeColor=none;fillColor=default;align=left;verticalAlign=top;spacingLeft=4;spacingRight=4;overflow=hidden;rotatable=0;points=[[0,0.5],[1,0.5]];portConstraint=eastwest;whiteSpace=wrap;html=1;" parent="XqGdemayxkRtgshSwvwm-9" vertex="1">
          <mxGeometry y="26" width="703" height="219" as="geometry" />
        </mxCell>
        <mxCell id="VYtjbIEFMLEIHyW4JVhx-3" value="&lt;div&gt;&lt;font style=&quot;font-size: 18px;&quot;&gt;/*工作线程运行的函数，它不断从工作队列中取出任务并执行之*/&lt;/font&gt;&lt;/div&gt;&lt;div&gt;&lt;font size=&quot;3&quot;&gt;&amp;nbsp;- worker(void *arg):&amp;nbsp;&lt;/font&gt;&lt;span style=&quot;font-size: medium; background-color: initial;&quot;&gt;static void *&lt;/span&gt;&lt;/div&gt;&lt;div style=&quot;&quot;&gt;&lt;font size=&quot;3&quot;&gt;&amp;nbsp;- run():&amp;nbsp;&lt;/font&gt;&lt;span style=&quot;font-size: medium; background-color: initial;&quot;&gt;void&lt;/span&gt;&lt;/div&gt;&lt;div style=&quot;&quot;&gt;&lt;font size=&quot;3&quot;&gt;&lt;div&gt;&amp;nbsp;+ threadpool(int actor_model, connection_pool *connPool, int thread_number = 8, int max_request = 10000):&amp;nbsp;&lt;/div&gt;&lt;div&gt;&amp;nbsp;+ ~threadpool():&amp;nbsp;&lt;/div&gt;&lt;div&gt;&amp;nbsp;+ append(T *request, int state):&amp;nbsp;&lt;span style=&quot;background-color: initial;&quot;&gt;bool&lt;/span&gt;&lt;span style=&quot;background-color: initial;&quot;&gt;&amp;nbsp;&lt;/span&gt;&lt;/div&gt;&lt;/font&gt;&lt;font size=&quot;3&quot;&gt;&lt;div&gt;&amp;nbsp;+ append_p(T *request):&amp;nbsp;&lt;span style=&quot;background-color: initial;&quot;&gt;bool&lt;/span&gt;&lt;span style=&quot;background-color: initial;&quot;&gt;&amp;nbsp;&lt;/span&gt;&lt;/div&gt;&lt;/font&gt;&lt;/div&gt;" style="html=1;whiteSpace=wrap;align=left;" parent="XqGdemayxkRtgshSwvwm-9" vertex="1">
          <mxGeometry y="245" width="703" height="231" as="geometry" />
        </mxCell>
        <mxCell id="WSQFg_8fGxmqORD7pmme-1" value="" style="group" parent="1" vertex="1" connectable="0">
          <mxGeometry x="1791" y="101" width="293" height="218" as="geometry" />
        </mxCell>
        <mxCell id="WSQFg_8fGxmqORD7pmme-2" value="&lt;font style=&quot;font-size: 14px;&quot;&gt;// 使用RAII机制实现信号量的创建和销毁，并实现PV操作&lt;/font&gt;" style="text;html=1;align=center;verticalAlign=middle;resizable=0;points=[];autosize=1;strokeColor=none;fillColor=none;" parent="WSQFg_8fGxmqORD7pmme-1" vertex="1">
          <mxGeometry width="380" height="30" as="geometry" />
        </mxCell>
        <mxCell id="WSQFg_8fGxmqORD7pmme-3" value="&lt;font style=&quot;font-size: 20px;&quot;&gt;&lt;i&gt;sem&lt;/i&gt;&lt;/font&gt;" style="swimlane;fontStyle=1;align=center;verticalAlign=top;childLayout=stackLayout;horizontal=1;startSize=30;horizontalStack=0;resizeParent=1;resizeParentMax=0;resizeLast=0;collapsible=1;marginBottom=0;whiteSpace=wrap;html=1;" parent="WSQFg_8fGxmqORD7pmme-1" vertex="1">
          <mxGeometry x="7.7105263157894735" y="36.333333333333336" width="185.05263157894737" height="188.05" as="geometry" />
        </mxCell>
        <mxCell id="WSQFg_8fGxmqORD7pmme-4" value="&lt;font style=&quot;font-size: 20px;&quot;&gt;- m_sem: sem_t&lt;/font&gt;" style="text;strokeColor=none;fillColor=default;align=left;verticalAlign=top;spacingLeft=4;spacingRight=4;overflow=hidden;rotatable=0;points=[[0,0.5],[1,0.5]];portConstraint=eastwest;whiteSpace=wrap;html=1;" parent="WSQFg_8fGxmqORD7pmme-3" vertex="1">
          <mxGeometry y="30" width="185.05263157894737" height="23.616666666666667" as="geometry" />
        </mxCell>
        <mxCell id="WSQFg_8fGxmqORD7pmme-5" value="" style="line;strokeWidth=1;fillColor=default;align=left;verticalAlign=middle;spacingTop=-1;spacingLeft=3;spacingRight=3;rotatable=0;labelPosition=right;points=[];portConstraint=eastwest;strokeColor=inherit;" parent="WSQFg_8fGxmqORD7pmme-3" vertex="1">
          <mxGeometry y="53.61666666666667" width="185.05263157894737" height="7.266666666666667" as="geometry" />
        </mxCell>
        <mxCell id="CIj_1EumNB4_XmNTMMSo-14" value="&lt;font style=&quot;font-size: 20px;&quot;&gt;+ sem()&lt;/font&gt;&lt;div&gt;&lt;font size=&quot;3&quot;&gt;+ sem(int num)&lt;/font&gt;&lt;/div&gt;&lt;div&gt;&lt;font size=&quot;3&quot;&gt;+ ~sem()&lt;/font&gt;&lt;/div&gt;&lt;div&gt;&lt;font size=&quot;3&quot;&gt;+ wait(): bool&lt;/font&gt;&lt;/div&gt;&lt;div&gt;&lt;font size=&quot;3&quot;&gt;+ post(): bool&lt;/font&gt;&lt;/div&gt;" style="text;strokeColor=none;fillColor=default;align=left;verticalAlign=top;spacingLeft=4;spacingRight=4;overflow=hidden;rotatable=0;points=[[0,0.5],[1,0.5]];portConstraint=eastwest;whiteSpace=wrap;html=1;" parent="WSQFg_8fGxmqORD7pmme-3" vertex="1">
          <mxGeometry y="60.88333333333333" width="185.05263157894737" height="127.16666666666669" as="geometry" />
        </mxCell>
        <mxCell id="CIj_1EumNB4_XmNTMMSo-1" value="" style="group" parent="1" vertex="1" connectable="0">
          <mxGeometry x="1793" y="348" width="330" height="239.16666666666666" as="geometry" />
        </mxCell>
        <mxCell id="CIj_1EumNB4_XmNTMMSo-2" value="&lt;font style=&quot;font-size: 20px;&quot;&gt;&lt;i&gt;locker&lt;/i&gt;&lt;/font&gt;" style="swimlane;fontStyle=1;align=center;verticalAlign=top;childLayout=stackLayout;horizontal=1;startSize=31;horizontalStack=0;resizeParent=1;resizeParentMax=0;resizeLast=0;collapsible=1;marginBottom=0;whiteSpace=wrap;html=1;" parent="CIj_1EumNB4_XmNTMMSo-1" vertex="1">
          <mxGeometry y="39.166666666666664" width="280" height="205.00444444444446" as="geometry" />
        </mxCell>
        <mxCell id="CIj_1EumNB4_XmNTMMSo-3" value="&lt;font style=&quot;font-size: 20px;&quot;&gt;- m_mutex: pthread_mutex_t&lt;/font&gt;" style="text;strokeColor=none;fillColor=default;align=left;verticalAlign=top;spacingLeft=4;spacingRight=4;overflow=hidden;rotatable=0;points=[[0,0.5],[1,0.5]];portConstraint=eastwest;whiteSpace=wrap;html=1;" parent="CIj_1EumNB4_XmNTMMSo-2" vertex="1">
          <mxGeometry y="31" width="280" height="34" as="geometry" />
        </mxCell>
        <mxCell id="CIj_1EumNB4_XmNTMMSo-4" value="" style="line;strokeWidth=1;fillColor=none;align=left;verticalAlign=middle;spacingTop=-1;spacingLeft=3;spacingRight=3;rotatable=0;labelPosition=right;points=[];portConstraint=eastwest;strokeColor=inherit;" parent="CIj_1EumNB4_XmNTMMSo-2" vertex="1">
          <mxGeometry y="65" width="280" height="10.444444444444445" as="geometry" />
        </mxCell>
        <mxCell id="CIj_1EumNB4_XmNTMMSo-5" value="&lt;font style=&quot;font-size: 20px;&quot;&gt;+ locker()&lt;/font&gt;&lt;div&gt;&lt;font size=&quot;3&quot;&gt;+ ~locker()&lt;/font&gt;&lt;/div&gt;&lt;div&gt;&lt;font size=&quot;3&quot;&gt;+ lock(): bool&lt;/font&gt;&lt;/div&gt;&lt;div&gt;&lt;font size=&quot;3&quot;&gt;+ unlock(): bool&lt;/font&gt;&lt;/div&gt;&lt;div&gt;&lt;font size=&quot;3&quot;&gt;+ get(): pthread_mutex_t *&lt;/font&gt;&lt;/div&gt;" style="text;strokeColor=none;fillColor=default;align=left;verticalAlign=top;spacingLeft=4;spacingRight=4;overflow=hidden;rotatable=0;points=[[0,0.5],[1,0.5]];portConstraint=eastwest;whiteSpace=wrap;html=1;" parent="CIj_1EumNB4_XmNTMMSo-2" vertex="1">
          <mxGeometry y="75.44444444444444" width="280" height="129.56" as="geometry" />
        </mxCell>
        <mxCell id="CIj_1EumNB4_XmNTMMSo-6" value="&lt;font style=&quot;font-size: 14px;&quot;&gt;// 使用RAII机制实现互斥锁机制，以实现多线程同步&lt;/font&gt;" style="text;html=1;align=center;verticalAlign=middle;resizable=0;points=[];autosize=1;strokeColor=none;fillColor=none;" parent="CIj_1EumNB4_XmNTMMSo-1" vertex="1">
          <mxGeometry x="-10" width="340" height="30" as="geometry" />
        </mxCell>
        <mxCell id="CIj_1EumNB4_XmNTMMSo-12" value="" style="group" parent="1" vertex="1" connectable="0">
          <mxGeometry x="1565" y="677" width="804" height="721" as="geometry" />
        </mxCell>
        <mxCell id="CIj_1EumNB4_XmNTMMSo-7" value="" style="group" parent="CIj_1EumNB4_XmNTMMSo-12" vertex="1" connectable="0">
          <mxGeometry y="4" width="804" height="717" as="geometry" />
        </mxCell>
        <mxCell id="CIj_1EumNB4_XmNTMMSo-9" value="&lt;font style=&quot;font-size: 18px;&quot;&gt;&lt;i&gt;connection_pool&lt;/i&gt;&lt;/font&gt;" style="swimlane;fontStyle=1;align=center;verticalAlign=top;childLayout=stackLayout;horizontal=1;startSize=26;horizontalStack=0;resizeParent=1;resizeParentMax=0;resizeLast=0;collapsible=1;marginBottom=0;whiteSpace=wrap;html=1;" parent="CIj_1EumNB4_XmNTMMSo-7" vertex="1">
          <mxGeometry x="10" y="40" width="794" height="628" as="geometry" />
        </mxCell>
        <mxCell id="CIj_1EumNB4_XmNTMMSo-10" value="&lt;div&gt;&lt;font style=&quot;font-size: 18px;&quot;&gt;- m_MaxConn:&amp;nbsp;&lt;/font&gt;&lt;span style=&quot;font-size: 18px; background-color: initial;&quot;&gt;int&amp;nbsp;&lt;/span&gt;&lt;span style=&quot;font-size: 18px; background-color: initial;&quot;&gt;&amp;nbsp;&amp;nbsp;//最大连接&lt;/span&gt;&lt;/div&gt;&lt;div&gt;&lt;span style=&quot;background-color: initial; font-size: 18px;&quot;&gt;-&lt;/span&gt;&lt;span style=&quot;font-size: medium; background-color: initial;&quot;&gt; m_CurConn:&amp;nbsp;&lt;/span&gt;&lt;span style=&quot;font-size: medium; background-color: initial;&quot;&gt;int&amp;nbsp;&lt;/span&gt;&lt;span style=&quot;background-color: initial; font-size: medium;&quot;&gt;&amp;nbsp;&amp;nbsp;//当前已使用的连接数&lt;/span&gt;&lt;/div&gt;&lt;div&gt;&lt;span style=&quot;white-space: normal;&quot;&gt;&lt;font size=&quot;3&quot;&gt;- m_FreeConn:&amp;nbsp;&lt;/font&gt;&lt;/span&gt;&lt;span style=&quot;font-size: medium; background-color: initial;&quot;&gt;int&lt;/span&gt;&lt;span style=&quot;font-size: medium; background-color: initial;&quot;&gt;&amp;nbsp; &amp;nbsp;//当前空闲的连接数&lt;/span&gt;&lt;/div&gt;&lt;div&gt;&lt;span style=&quot;white-space: normal;&quot;&gt;&lt;font size=&quot;3&quot;&gt;- lock:&amp;nbsp;&lt;/font&gt;&lt;/span&gt;&lt;span style=&quot;font-size: medium; background-color: initial;&quot;&gt;locker&lt;/span&gt;&lt;/div&gt;&lt;div&gt;&lt;span style=&quot;white-space: normal;&quot;&gt;&lt;font size=&quot;3&quot;&gt;- connList:&amp;nbsp;&lt;/font&gt;&lt;/span&gt;&lt;span style=&quot;font-size: medium; background-color: initial;&quot;&gt;list&amp;lt;MYSQL *&amp;gt;&lt;/span&gt;&lt;span style=&quot;font-size: medium; background-color: initial;&quot;&gt;&amp;nbsp;//连接池&lt;/span&gt;&lt;/div&gt;&lt;div&gt;&lt;span style=&quot;white-space: normal;&quot;&gt;&lt;font size=&quot;3&quot;&gt;- reserve:&amp;nbsp;&lt;/font&gt;&lt;/span&gt;&lt;span style=&quot;font-size: medium; background-color: initial;&quot;&gt;sem&lt;/span&gt;&lt;/div&gt;&lt;div&gt;&lt;span style=&quot;background-color: initial;&quot;&gt;&lt;font size=&quot;3&quot;&gt;&lt;div style=&quot;&quot;&gt;+ m_url:&amp;nbsp;&lt;span style=&quot;background-color: initial;&quot;&gt;string&amp;nbsp; &amp;nbsp;&lt;/span&gt;&lt;span style=&quot;background-color: initial;&quot;&gt;//主机地址&lt;/span&gt;&lt;/div&gt;&lt;/font&gt;&lt;/span&gt;&lt;span style=&quot;background-color: initial;&quot;&gt;&lt;font size=&quot;3&quot;&gt;&lt;div style=&quot;&quot;&gt;+ m_Port:&lt;span style=&quot;background-color: initial;&quot;&gt;&amp;nbsp;&lt;/span&gt;&lt;span style=&quot;background-color: initial;&quot;&gt;string&amp;nbsp; &amp;nbsp;&lt;/span&gt;&lt;span style=&quot;background-color: initial;&quot;&gt;//数据库端口号&lt;/span&gt;&lt;/div&gt;&lt;/font&gt;&lt;/span&gt;&lt;span style=&quot;background-color: initial;&quot;&gt;&lt;font size=&quot;3&quot;&gt;&lt;div style=&quot;&quot;&gt;+ m_User:&amp;nbsp;&lt;span style=&quot;background-color: initial;&quot;&gt;string&amp;nbsp; &amp;nbsp;&lt;/span&gt;&lt;span style=&quot;background-color: initial;&quot;&gt;//登陆数据库用户名&lt;/span&gt;&lt;/div&gt;&lt;/font&gt;&lt;/span&gt;&lt;span style=&quot;background-color: initial;&quot;&gt;&lt;font size=&quot;3&quot;&gt;&lt;div style=&quot;&quot;&gt;+ m_PassWord:&amp;nbsp;&lt;span style=&quot;background-color: initial;&quot;&gt;string&amp;nbsp; &amp;nbsp;&lt;/span&gt;&lt;span style=&quot;background-color: initial;&quot;&gt;//登陆数据库密码&lt;/span&gt;&lt;/div&gt;&lt;/font&gt;&lt;/span&gt;&lt;span style=&quot;background-color: initial;&quot;&gt;&lt;font size=&quot;3&quot;&gt;&lt;div style=&quot;&quot;&gt;+ m_DatabaseName:&amp;nbsp;&lt;span style=&quot;background-color: initial;&quot;&gt;string&lt;/span&gt;&lt;span style=&quot;background-color: initial;&quot;&gt;&amp;nbsp; &amp;nbsp;&lt;/span&gt;&lt;span style=&quot;background-color: initial;&quot;&gt;//使用数据库名&lt;/span&gt;&lt;/div&gt;&lt;/font&gt;&lt;/span&gt;&lt;span style=&quot;background-color: initial;&quot;&gt;&lt;font size=&quot;3&quot;&gt;&lt;div style=&quot;&quot;&gt;+ m_close_log:&amp;nbsp;&lt;span style=&quot;background-color: initial;&quot;&gt;int&lt;/span&gt;&lt;span style=&quot;background-color: initial; white-space: pre;&quot;&gt;&#x9;&lt;/span&gt;&lt;span style=&quot;background-color: initial;&quot;&gt;//日志开关&lt;/span&gt;&lt;/div&gt;&lt;/font&gt;&lt;/span&gt;&lt;/div&gt;" style="text;strokeColor=none;fillColor=default;align=left;verticalAlign=top;spacingLeft=4;spacingRight=4;overflow=hidden;rotatable=0;points=[[0,0.5],[1,0.5]];portConstraint=eastwest;whiteSpace=wrap;html=1;" parent="CIj_1EumNB4_XmNTMMSo-9" vertex="1">
          <mxGeometry y="26" width="794" height="324" as="geometry" />
        </mxCell>
        <mxCell id="CIj_1EumNB4_XmNTMMSo-11" value="&lt;div&gt;&lt;span style=&quot;font-size: 18px;&quot;&gt;// 构造和析构函数私有是为了单例模式的实现&lt;/span&gt;&lt;/div&gt;&lt;div&gt;&lt;span style=&quot;font-size: 18px;&quot;&gt;- connection_pool():&amp;nbsp;&lt;/span&gt;&lt;/div&gt;&lt;div&gt;&lt;span style=&quot;font-size: 18px;&quot;&gt;- ~connection_pool():&lt;/span&gt;&lt;/div&gt;&lt;div&gt;&lt;div style=&quot;&quot;&gt;&lt;span style=&quot;font-size: 18px;&quot;&gt;+ GetConnection():&amp;nbsp;&lt;/span&gt;&lt;span style=&quot;font-size: 18px; background-color: initial;&quot;&gt;MYSQL *&amp;nbsp; &amp;nbsp;&lt;/span&gt;&lt;span style=&quot;font-size: 18px; background-color: initial;&quot;&gt;// 获取数据库连接&lt;/span&gt;&lt;/div&gt;&lt;div style=&quot;&quot;&gt;&lt;span style=&quot;font-size: 18px;&quot;&gt;+ ReleaseConnection(MYSQL *conn):&amp;nbsp;&lt;/span&gt;&lt;span style=&quot;font-size: 18px; background-color: initial;&quot;&gt;bool&amp;nbsp; &amp;nbsp;&lt;/span&gt;&lt;span style=&quot;font-size: 18px; background-color: initial;&quot;&gt;// 释放连接&lt;/span&gt;&lt;/div&gt;&lt;div style=&quot;&quot;&gt;&lt;span style=&quot;font-size: 18px;&quot;&gt;+ GetFreeConn():&amp;nbsp;&lt;/span&gt;&lt;span style=&quot;font-size: 18px; background-color: initial;&quot;&gt;int&lt;/span&gt;&lt;span style=&quot;font-size: 18px; background-color: initial;&quot;&gt;&amp;nbsp; &amp;nbsp;&amp;nbsp;&lt;/span&gt;&lt;span style=&quot;font-size: 18px; background-color: initial;&quot;&gt;// 获取连接&lt;/span&gt;&lt;/div&gt;&lt;div style=&quot;&quot;&gt;&lt;span style=&quot;font-size: 18px;&quot;&gt;+ DestroyPool():&amp;nbsp;&lt;/span&gt;&lt;span style=&quot;font-size: 18px; background-color: initial;&quot;&gt;void&amp;nbsp; &amp;nbsp;&lt;/span&gt;&lt;span style=&quot;font-size: 18px; background-color: initial;&quot;&gt;// 销毁所有连接&lt;/span&gt;&lt;/div&gt;&lt;div style=&quot;&quot;&gt;&lt;span style=&quot;font-size: 18px;&quot;&gt;+ GetInstance():&amp;nbsp;&lt;/span&gt;&lt;span style=&quot;font-size: 18px; background-color: initial;&quot;&gt;static connection_pool *&lt;/span&gt;&lt;span style=&quot;background-color: initial; font-size: 18px;&quot;&gt;&amp;nbsp;&amp;nbsp;&lt;/span&gt;&lt;span style=&quot;background-color: initial; font-size: 18px;&quot;&gt;&amp;nbsp;&lt;/span&gt;&lt;span style=&quot;background-color: initial; font-size: 18px;&quot;&gt;// 单例模式&lt;/span&gt;&lt;/div&gt;&lt;div style=&quot;&quot;&gt;&lt;span style=&quot;font-size: 18px;&quot;&gt;+ init(string url, string User, string PassWord, string DataBaseName, int Port, int MaxConn, int close_log):&amp;nbsp;&lt;/span&gt;&lt;span style=&quot;font-size: 18px; background-color: initial;&quot;&gt;void&lt;/span&gt;&lt;/div&gt;&lt;/div&gt;" style="html=1;whiteSpace=wrap;align=left;" parent="CIj_1EumNB4_XmNTMMSo-9" vertex="1">
          <mxGeometry y="350" width="794" height="278" as="geometry" />
        </mxCell>
        <mxCell id="CIj_1EumNB4_XmNTMMSo-33" value="" style="endArrow=open;endFill=1;endSize=12;html=1;rounded=0;strokeWidth=3;entryX=-0.005;entryY=0.657;entryDx=0;entryDy=0;entryPerimeter=0;" parent="CIj_1EumNB4_XmNTMMSo-7" edge="1">
          <mxGeometry width="160" relative="1" as="geometry">
            <mxPoint x="344.4000000000001" y="35.26999999999998" as="sourcePoint" />
            <mxPoint x="344" y="-85.99796888888909" as="targetPoint" />
          </mxGeometry>
        </mxCell>
        <mxCell id="CIj_1EumNB4_XmNTMMSo-8" value="&lt;font style=&quot;font-size: 18px;&quot;&gt;// 数据库连接池类定义&lt;/font&gt;" style="text;html=1;align=center;verticalAlign=middle;resizable=0;points=[];autosize=1;strokeColor=none;fillColor=none;" parent="CIj_1EumNB4_XmNTMMSo-12" vertex="1">
          <mxGeometry x="10" width="195" height="34" as="geometry" />
        </mxCell>
        <mxCell id="CIj_1EumNB4_XmNTMMSo-24" value="" style="group" parent="1" vertex="1" connectable="0">
          <mxGeometry x="1544" y="191" width="181" height="38" as="geometry" />
        </mxCell>
        <mxCell id="CIj_1EumNB4_XmNTMMSo-20" value="" style="endArrow=open;endFill=1;endSize=12;html=1;rounded=0;entryX=-0.004;entryY=0.257;entryDx=0;entryDy=0;entryPerimeter=0;strokeWidth=3;" parent="CIj_1EumNB4_XmNTMMSo-24" target="CIj_1EumNB4_XmNTMMSo-14" edge="1">
          <mxGeometry width="160" relative="1" as="geometry">
            <mxPoint y="38" as="sourcePoint" />
            <mxPoint x="160" y="38" as="targetPoint" />
          </mxGeometry>
        </mxCell>
        <mxCell id="CIj_1EumNB4_XmNTMMSo-22" value="&lt;font style=&quot;font-size: 18px;&quot;&gt;关联关系&lt;/font&gt;" style="text;html=1;align=center;verticalAlign=middle;resizable=0;points=[];autosize=1;strokeColor=none;fillColor=none;" parent="CIj_1EumNB4_XmNTMMSo-24" vertex="1">
          <mxGeometry x="91" width="90" height="34" as="geometry" />
        </mxCell>
        <mxCell id="CIj_1EumNB4_XmNTMMSo-25" value="" style="group" parent="1" vertex="1" connectable="0">
          <mxGeometry x="1544" y="418" width="252" height="43" as="geometry" />
        </mxCell>
        <mxCell id="CIj_1EumNB4_XmNTMMSo-21" value="" style="endArrow=open;endFill=1;endSize=12;html=1;rounded=0;strokeWidth=3;" parent="CIj_1EumNB4_XmNTMMSo-25" edge="1">
          <mxGeometry width="160" relative="1" as="geometry">
            <mxPoint y="43" as="sourcePoint" />
            <mxPoint x="252" y="43" as="targetPoint" />
          </mxGeometry>
        </mxCell>
        <mxCell id="CIj_1EumNB4_XmNTMMSo-23" value="&lt;font style=&quot;font-size: 18px;&quot;&gt;关联关系&lt;/font&gt;" style="text;html=1;align=center;verticalAlign=middle;resizable=0;points=[];autosize=1;strokeColor=none;fillColor=none;" parent="CIj_1EumNB4_XmNTMMSo-25" vertex="1">
          <mxGeometry x="88" width="90" height="34" as="geometry" />
        </mxCell>
        <mxCell id="CIj_1EumNB4_XmNTMMSo-27" value="" style="group" parent="1" vertex="1" connectable="0">
          <mxGeometry x="1544" y="418" width="252" height="43" as="geometry" />
        </mxCell>
        <mxCell id="CIj_1EumNB4_XmNTMMSo-28" value="" style="endArrow=open;endFill=1;endSize=12;html=1;rounded=0;strokeWidth=3;" parent="CIj_1EumNB4_XmNTMMSo-27" edge="1">
          <mxGeometry width="160" relative="1" as="geometry">
            <mxPoint y="43" as="sourcePoint" />
            <mxPoint x="252" y="43" as="targetPoint" />
          </mxGeometry>
        </mxCell>
        <mxCell id="CIj_1EumNB4_XmNTMMSo-29" value="&lt;font style=&quot;font-size: 18px;&quot;&gt;关联关系&lt;/font&gt;" style="text;html=1;align=center;verticalAlign=middle;resizable=0;points=[];autosize=1;strokeColor=none;fillColor=none;" parent="CIj_1EumNB4_XmNTMMSo-27" vertex="1">
          <mxGeometry x="88" width="90" height="34" as="geometry" />
        </mxCell>
        <mxCell id="CIj_1EumNB4_XmNTMMSo-34" value="&lt;font style=&quot;font-size: 18px;&quot;&gt;关联关系&lt;/font&gt;" style="text;html=1;align=center;verticalAlign=middle;resizable=0;points=[];autosize=1;strokeColor=none;fillColor=none;" parent="1" vertex="1">
          <mxGeometry x="1915" y="643" width="90" height="34" as="geometry" />
        </mxCell>
        <mxCell id="CIj_1EumNB4_XmNTMMSo-35" value="" style="endArrow=open;endFill=1;endSize=12;html=1;rounded=0;strokeWidth=3;entryX=1.019;entryY=0.268;entryDx=0;entryDy=0;entryPerimeter=0;exitX=0.766;exitY=0.002;exitDx=0;exitDy=0;exitPerimeter=0;" parent="1" source="CIj_1EumNB4_XmNTMMSo-9" target="CIj_1EumNB4_XmNTMMSo-14" edge="1">
          <mxGeometry width="160" relative="1" as="geometry">
            <mxPoint x="2183" y="709" as="sourcePoint" />
            <mxPoint x="2200" y="185.0020311111109" as="targetPoint" />
            <Array as="points">
              <mxPoint x="2180" y="232" />
            </Array>
          </mxGeometry>
        </mxCell>
        <mxCell id="CIj_1EumNB4_XmNTMMSo-36" value="&lt;font style=&quot;font-size: 18px;&quot;&gt;关联关系&lt;/font&gt;" style="text;html=1;align=center;verticalAlign=middle;resizable=0;points=[];autosize=1;strokeColor=none;fillColor=none;" parent="1" vertex="1">
          <mxGeometry x="2187" y="388" width="90" height="34" as="geometry" />
        </mxCell>
        <mxCell id="r_OrvJAJa1cCzyKYZAMF-3" value="1" style="endArrow=open;html=1;endSize=12;startArrow=diamondThin;startSize=14;startFill=1;edgeStyle=orthogonalEdgeStyle;align=left;verticalAlign=bottom;rounded=0;entryX=0;entryY=0.673;entryDx=0;entryDy=0;entryPerimeter=0;strokeWidth=4;" parent="1" target="CIj_1EumNB4_XmNTMMSo-10" edge="1">
          <mxGeometry x="-1" y="3" relative="1" as="geometry">
            <mxPoint x="1208" y="643" as="sourcePoint" />
            <mxPoint x="1557" y="961" as="targetPoint" />
          </mxGeometry>
        </mxCell>
        <mxCell id="r_OrvJAJa1cCzyKYZAMF-4" value="&lt;font style=&quot;font-size: 18px;&quot;&gt;合成/组合关系&lt;/font&gt;" style="text;html=1;align=center;verticalAlign=middle;resizable=0;points=[];autosize=1;strokeColor=none;fillColor=none;" parent="1" vertex="1">
          <mxGeometry x="1206" y="793" width="131" height="34" as="geometry" />
        </mxCell>
      </root>
    </mxGraphModel>
  </diagram>
</mxfile>
